PathFileType	4	(X/Y/Z)	C:\Users\WrightLab\Desktop\Jo\P5V15.trc
DataRate	CameraRate	NumFrames	NumMarkers	Units	OrigDataRate	OrigDataStartFrame	OrigNumFrames
100.00	100.00	       16	19	mm	100.00	504	       805
Frame#	Time	Headset_Front			Headset_Back			Headset_Left			Headset_Right			Left_Shoulder			Right_Shoulder			Sternum			C7			Left Elbow			Right Elbow			Left Wrist			Right Wrist			Left ASIS			Right ASIS			S2			Left Knee			Right Knee			Left Ankle			Right Ankle			
		X1	Y1	Z1	X2	Y2	Z2	X3	Y3	Z3	X4	Y4	Z4	X5	Y5	Z5	X6	Y6	Z6	X7	Y7	Z7	X8	Y8	Z8	X9	Y9	Z9	X10	Y10	Z10	X11	Y11	Z11	X12	Y12	Z12	X13	Y13	Z13	X14	Y14	Z14	X15	Y15	Z15	X16	Y16	Z16	X17	Y17	Z17	X18	Y18	Z18	X19	Y19	Z19	

504	5.030	214.70120	1613.69568	9.08738	324.27173	1456.77258	-78.97890				434.61368	1539.03906	-14.93356	113.07642	1457.15491	96.23767	497.38495	1486.97803	258.63507	361.04120	1308.05933	142.55684	264.97516	1547.31335	274.77393	-4.50548	1194.22607	200.24522	570.75415	1258.22437	429.23038	-30.05437	948.05774	179.18031	655.54315	1067.67371	293.36899	183.90399	1017.66833	387.91519	479.70761	966.88916	291.32285	270.04007	916.24152	108.60731	303.17468	525.08221	78.41351	429.88818	508.05930	429.03665	304.85025	116.59485	120.75394	223.56329	135.13959	529.33923	
505	5.040				327.72699	1458.33777	-84.32677				437.94019	1540.36328	-20.16774	116.46705	1457.72009	92.14452	502.06464	1485.97913	253.02039	363.95425	1307.65759	136.42467	269.61252	1547.17944	269.94910	-0.26111	1194.86365	198.73334	575.41791	1256.80090	421.98444	-26.13806	948.29565	180.28152	659.15411	1066.49670	286.24118	187.08502	1017.64240	383.83386	482.92618	966.36670	285.10077	272.23660	916.05469	104.05372	306.07748	523.82324	75.19975	433.85785	508.49445	425.88278	319.05463	114.57374	114.28214	224.34262	136.61354	528.86615	
506	5.050				331.13861	1460.07397	-89.66048				441.36331	1541.90881	-25.27270	119.54204	1458.01318	88.43162	506.13773	1485.02966	246.70946	367.84543	1307.63293	130.69717	274.34793	1546.76611	265.52271	4.09594	1194.84814	196.88278	580.13855	1255.41382	415.14670	-23.00760	948.00061	180.47365	662.25305	1065.32813	277.77322	190.56296	1017.01746	379.06854	486.35217	964.22974	281.59033	274.67151	915.68250	98.61501	309.07596	522.36646	72.52287	437.87772	507.24118	421.41760	332.14984	113.11020	107.68958	224.86742	137.75110	528.28741	
507	5.060				334.31320	1461.79883	-95.72340				444.59644	1543.69580	-31.20001	122.70457	1458.67358	84.53674	510.01239	1484.96973	240.18330	371.52011	1307.86072	124.89376	278.46198	1546.12195	260.95334	9.68562	1194.32275	194.49609	584.69476	1254.32288	407.59973	-19.56257	947.42621	180.60762	665.76166	1064.44629	269.31320	194.67212	1016.67505	374.44165	489.58588	964.03644	273.33847	276.93365	915.35608	93.62128	312.36237	520.98889	69.78332	442.64035	507.36096	416.91025	345.38608	111.26975	102.69274	225.68214	139.16263	527.56006	
508	5.070				337.78189	1462.77905	-101.08028				448.14001	1545.27637	-36.09737	126.08880	1458.82214	80.05119	514.22656	1484.11304	233.96582	374.87540	1307.82690	118.70234	282.56265	1545.58862	256.54456	14.12955	1194.25854	191.96706	589.43512	1253.13855	400.37686	-15.91246	947.49481	180.16866	669.11975	1063.57153	261.66910	198.60583	1016.78735	368.59161	493.31754	963.61041	267.36392	280.17337	915.70862	88.33981	315.86301	519.55554	67.07756	446.99069	506.94385	411.80817	357.47440	109.83030	97.94051	226.50885	140.51778	526.71869	
509	5.080				340.79706	1464.65808	-107.07809				451.24554	1546.15540	-41.42005	129.14223	1458.84949	75.97643	518.75970	1483.32031	228.11957	378.16464	1307.29175	112.23086	287.18674	1545.52551	251.39494	20.00593	1193.55383	188.05690	593.86163	1251.70093	393.47229	-12.73695	947.15186	179.28290	672.76953	1062.71191	253.28259	202.99274	1016.02264	363.10919	496.35370	962.27740	260.16489	282.92838	915.66187	82.44449	319.41208	518.20471	64.53686	450.61911	505.80356	407.06146	370.06027	108.12751	93.50539	228.30244	142.16916	526.19312	
510	5.090				343.96179	1466.17810	-112.60865				454.27127	1548.09973	-46.96272	132.70818	1458.91846	71.14145	523.24890	1483.99451	221.70175	381.97620	1307.29626	106.70340	291.61728	1544.59021	246.20448	23.88930	1193.03418	185.01004	598.39307	1250.93347	385.46338	-9.28706	946.23737	178.11795	676.19928	1061.68005	244.82312	206.61385	1015.52100	357.69095	500.64734	962.25366	253.21986	286.14938	915.34125	76.55532	323.21710	516.47015	61.77938	454.68863	504.99615	402.59891	381.15381	107.44489	89.81210	229.27098	143.87982	525.62378	
511	5.100	236.46461	1617.79456	-19.28839	347.01077	1467.43237	-118.07462				456.72925	1549.26660	-52.99105	135.82886	1458.72266	66.75622	527.24615	1482.90674	215.87511	385.40851	1307.03247	99.88940	295.46021	1543.91589	241.04152	29.92432	1192.45422	181.59190	603.22192	1249.58850	378.42319	-5.87523	945.33112	176.68097	679.58557	1060.93005	236.63766	210.99899	1015.09375	351.68042	504.56030	962.14099	245.33794	288.90692	915.07391	69.83421	327.02600	514.67004	59.46956	458.91330	504.87192	397.52438	391.18106	106.34618	87.06211	230.31854	145.08394	524.58936	
512	5.110	239.17845	1618.05042	-23.69023	349.78180	1468.68628	-123.93993				459.37680	1550.39929	-58.84145	139.23270	1458.76221	61.93088	531.54944	1482.20703	209.17546	388.94492	1306.86597	94.05083	299.85077	1543.18420	236.00752	34.59712	1191.67920	177.24844	607.75104	1248.57178	370.80511	-2.37328	945.11621	173.95203	683.33118	1059.96204	228.18590	215.10468	1013.84155	345.86005	508.66827	961.47479	238.82358	292.29541	914.60010	63.97232	331.07672	512.88550	57.04333	463.06250	504.35480	392.18506	400.58542	105.18824	84.91672	231.54883	146.58804	523.75336	
513	5.120	241.81441	1618.28345	-28.11124	352.45380	1469.97864	-129.91800				462.52234	1552.28369	-63.89458	142.62862	1458.55664	56.70103	535.78375	1481.79578	202.21811	393.14151	1307.27454	87.04068	303.89145	1542.44470	230.55646	40.08576	1190.58472	172.75430	612.15198	1247.58948	363.54599	0.81477	944.62531	171.67570	686.43823	1059.51038	219.66405	219.02982	1013.25537	339.77988	512.90594	960.84686	230.90157	295.29584	913.98419	57.56512	335.34619	511.02902	54.22504	466.99207	503.43350	386.96060	408.32056	104.02594	83.20520	233.31868	147.75002	522.54034	
514	5.130	244.29805	1618.38513	-32.73156	354.97839	1471.16260	-136.19510				464.75433	1552.35693	-69.97041	145.69722	1458.02368	51.76295	538.99683	1480.92322	195.32956	396.51855	1306.81702	80.20837	307.97781	1541.69824	225.06096	44.46248	1189.69263	168.19940	616.54608	1246.39746	355.57928	4.92264	943.37561	167.92009	689.84662	1058.65222	211.29167	223.07503	1012.66638	333.45914	517.07593	960.31909	224.02875	298.92651	913.16779	50.84927	340.04382	509.40460	51.44699	471.11032	502.42917	381.24509	415.27560	103.00411	83.03788	234.93854	149.57961	521.68219	
515	5.140	246.74396	1618.40942	-37.32038	357.50989	1472.08936	-141.91534				467.30832	1554.50562	-76.57402	148.84669	1457.41162	46.44639	540.97205	1479.68225	189.37726	400.59518	1306.67566	73.40741	311.70660	1540.45789	219.68698	49.21779	1188.75842	163.40906	620.70532	1245.62451	348.39951	8.52248	942.26294	164.52113	693.78442	1058.28308	202.55049	227.92172	1011.21228	326.63235	521.44086	959.65533	215.64568	302.59943	912.48846	43.56768	345.18567	507.99039	48.57981	475.77338	501.81183	375.56726	420.33304	103.12786	82.60972	236.15575	152.08382	520.26233	
516	5.150	249.08240	1618.42419	-41.96280	359.65829	1473.55444	-148.00655				470.12436	1555.08081	-82.96811	152.01692	1457.04993	40.92145	545.04486	1479.51794	182.33931	403.84122	1306.19336	66.47752	314.76462	1539.24866	214.71376	53.59130	1187.85596	158.52719	625.24792	1244.54407	340.69223	12.43473	941.04102	160.82684	697.20361	1057.37598	194.18530	232.06165	1009.96039	320.24500	526.56561	959.54486	207.81627	306.33951	911.90564	35.51810	350.62491	506.34363	45.24524	480.02527	501.41367	369.51361	422.60843	103.34523	82.65582	237.51518	153.91673	519.26349	
517	5.160	251.36903	1618.42322	-46.72294	361.91339	1473.76318	-154.43250				470.70807	1555.40674	-89.08356	155.05728	1456.20959	35.16471	548.69482	1478.98438	175.66519	407.29861	1305.68713	59.40234	318.73517	1537.95886	208.61411	58.27716	1186.42236	152.79744	629.37598	1243.66760	332.94308	16.20346	939.69568	155.97003	700.51245	1057.09924	185.67874	237.46861	1008.03577	313.58951	530.97723	958.59167	199.77478	310.78314	910.85352	28.00601	356.22043	504.93393	41.57017	484.83170	501.07800	362.72989	423.37613	102.58145	82.63433	239.11688	156.42641	517.85651	
518	5.170	253.70291	1618.31824	-51.70015	364.00162	1474.60437	-160.11232				474.03314	1556.17041	-95.25788	158.20987	1455.55188	29.15594	552.22656	1478.72571	168.69846	411.19458	1305.97205	51.47464	322.23306	1536.96167	202.80066	62.75267	1185.10034	147.07211	633.77490	1242.90894	324.93326	21.07673	938.06323	150.27548	704.13763	1056.58008	177.00311	242.15404	1007.04761	306.01254	535.83771	958.45154	191.15114	314.78055	910.31805	20.03114	362.66998	503.21625	37.69769	488.61868	500.10590	356.30988	423.87671	102.15408	83.27390	241.90083	158.81943	516.32391	
519	5.180	255.91206	1618.30237	-56.85140	365.83371	1475.28479	-167.10194				475.62534	1556.96228	-101.97099	160.83965	1454.89368	23.96642	555.46143	1478.39978	162.12776	414.65771	1305.29956	44.72059	325.65015	1535.98059	196.65007	67.20782	1183.98975	141.02684	637.98273	1242.09363	317.10806	23.53681	937.43304	145.57196	707.50525	1056.51831	168.61417	246.82500	1006.24548	299.12292	541.34326	957.93414	182.01677	319.76157	909.96942	11.98593	368.40094	502.79517	32.55893	493.14835	499.21356	349.35632	423.88687	102.10304	81.64169	244.60194	161.60846	514.66595	
